<svg xmlns="http://www.w3.org/2000/svg" xmlns:xlink="http://www.w3.org/1999/xlink" width="16" height="16" version="1.1" viewBox="0 0 16 16"><defs><linearGradient id="linearGradient4825" x1="-.397" x2="-1.191" y1="3.241" y2="1.191" gradientTransform="matrix(3.7795 0 0 3.7795 8.5 -6.308e-7)" gradientUnits="userSpaceOnUse"><stop offset="0" stop-color="#777772"/><stop offset="1" stop-color="#a9a9a9"/></linearGradient><linearGradient id="linearGradient4869-7" x1=".529" x2=".529" y1="2.646" y2="1.455" gradientTransform="scale(3.7795 3.7795)" gradientUnits="userSpaceOnUse"><stop offset="0" stop-color="#fff" stop-opacity="0"/><stop offset="1" stop-color="#fff"/></linearGradient><linearGradient id="linearGradient4853-9" x1="-.265" x2="-1.587" y1="3.44" y2=".728" gradientTransform="matrix(3.7795 0 0 3.7795 8.5 -2.9535e-7)" gradientUnits="userSpaceOnUse"><stop offset="0" stop-color="#5d5d5a"/><stop offset="1" stop-color="#90908f"/></linearGradient><radialGradient id="radialGradient4898-9" cx="15" cy="8.558" r="3.719" gradientTransform="matrix(2.4322e-8 -2.1513 1.6807 1.9002e-8 1.3671 40.269)" gradientUnits="userSpaceOnUse"><stop offset="0" stop-color="#e1293b"/><stop offset="1" stop-color="#e9505a"/></radialGradient></defs><g><path fill="url(#linearGradient4825)" d="m0.5 8v2.5h3.5l3.5 3v-11l-3.5 3h-3.5v2.5"/><path fill="none" stroke="url(#linearGradient4869-7)" stroke-opacity=".502" stroke-width="1.5" d="m1.25 10.5v-4.25h3l3-2.75"/><path fill="none" stroke="url(#linearGradient4853-9)" stroke-linecap="round" stroke-linejoin="round" d="m0.5 8v2.5h3.5l3.5 3v-11l-3.5 3h-3.5v2.5"/><path fill="url(#radialGradient4898-9)" d="m12.75 2.75c1.5 3 1.5 7.5 0 10.5 4.25-1.75 4.25-8.75 0-10.5m-2 2c0.75 1.5 0.75 5 0 6.5 3-1.25 3-5.25 0-6.5m-0.75 1.5-1.5 1.75 1.5 1.75c0.5-1 0.5-2.5 0-3.5"/></g></svg>